<svg width="256" height="256" viewBox="0 0 256 256" fill="none" xmlns="http://www.w3.org/2000/svg">
  <rect width="256" height="256" rx="52" fill="url(#g)"/>
  <path d="M86 176V80h46c23 0 36 10 36 27 0 11-6 18-14 22 12 4 21 13 21 27 0 20-15 30-41 30H86zm24-58h17c11 0 17-4 17-12 0-7-6-11-17-11h-17v23zm0 43h22c12 0 19-5 19-14s-7-14-19-14h-22v28z" fill="#fff"/>
  <defs>
    <linearGradient id="g" x1="30" y1="20" x2="230" y2="240" gradientUnits="userSpaceOnUse">
      <stop stop-color="#1D4ED8"/>
      <stop offset="1" stop-color="#0F172A"/>
    </linearGradient>
  </defs>
</svg>
