<svg width="1200" height="800" viewBox="0 0 1200 800" fill="none" xmlns="http://www.w3.org/2000/svg" role="img" aria-label="AI intelligence cover">
  <defs>
    <linearGradient id="bg" x1="0" y1="0" x2="1200" y2="800" gradientUnits="userSpaceOnUse">
      <stop stop-color="#0A0F1E"/>
      <stop offset="0.5" stop-color="#131F3D"/>
      <stop offset="1" stop-color="#0B132A"/>
    </linearGradient>
    <radialGradient id="core" cx="0" cy="0" r="1" gradientUnits="userSpaceOnUse" gradientTransform="translate(600 390) rotate(90) scale(260)">
      <stop stop-color="#6366F1" stop-opacity="0.9"/>
      <stop offset="1" stop-color="#6366F1" stop-opacity="0"/>
    </radialGradient>
  </defs>
  <rect width="1200" height="800" fill="url(#bg)"/>

  <g opacity="0.32" stroke="#60A5FA" stroke-width="1.3">
    <path d="M120 120H1080V680H120V120Z"/>
    <path d="M120 200H1080"/>
    <path d="M120 280H1080"/>
    <path d="M120 360H1080"/>
    <path d="M120 440H1080"/>
    <path d="M120 520H1080"/>
    <path d="M120 600H1080"/>
    <path d="M220 120V680"/>
    <path d="M320 120V680"/>
    <path d="M420 120V680"/>
    <path d="M520 120V680"/>
    <path d="M620 120V680"/>
    <path d="M720 120V680"/>
    <path d="M820 120V680"/>
    <path d="M920 120V680"/>
  </g>

  <circle cx="600" cy="390" r="210" fill="url(#core)"/>

  <g stroke="#C7D2FE" stroke-width="3" opacity="0.9">
    <circle cx="600" cy="390" r="84"/>
    <circle cx="600" cy="390" r="142" opacity="0.5"/>
    <path d="M600 246V534"/>
    <path d="M456 390H744"/>
    <path d="M508 298L692 482"/>
    <path d="M692 298L508 482"/>
  </g>

  <g fill="#E2E8F0" opacity="0.82">
    <rect x="132" y="136" width="280" height="34" rx="9"/>
    <rect x="132" y="184" width="190" height="24" rx="7" opacity="0.7"/>
  </g>
</svg>
