<svg width="1200" height="800" viewBox="0 0 1200 800" fill="none" xmlns="http://www.w3.org/2000/svg" role="img" aria-label="Hiring and talent cover">
  <defs>
    <linearGradient id="bg" x1="0" y1="0" x2="1200" y2="800" gradientUnits="userSpaceOnUse">
      <stop stop-color="#0A111F"/>
      <stop offset="0.5" stop-color="#121F37"/>
      <stop offset="1" stop-color="#0A1528"/>
    </linearGradient>
    <radialGradient id="orb" cx="0" cy="0" r="1" gradientUnits="userSpaceOnUse" gradientTransform="translate(920 200) rotate(130) scale(230 300)">
      <stop stop-color="#60A5FA" stop-opacity="0.32"/>
      <stop offset="1" stop-color="#60A5FA" stop-opacity="0"/>
    </radialGradient>
  </defs>

  <rect width="1200" height="800" fill="url(#bg)"/>
  <rect width="1200" height="800" fill="url(#orb)"/>

  <g opacity="0.9" fill="#1E3A8A" stroke="#93C5FD" stroke-opacity="0.4" stroke-width="2">
    <circle cx="300" cy="260" r="48"/>
    <circle cx="530" cy="220" r="48"/>
    <circle cx="760" cy="270" r="48"/>
    <circle cx="410" cy="470" r="48"/>
    <circle cx="640" cy="510" r="48"/>
    <circle cx="870" cy="450" r="48"/>
  </g>

  <g opacity="0.55" stroke="#60A5FA" stroke-width="4">
    <path d="M348 260H482"/>
    <path d="M578 234L712 257"/>
    <path d="M524 264L430 423"/>
    <path d="M715 304L665 462"/>
    <path d="M458 484H592"/>
    <path d="M688 494L822 462"/>
  </g>

  <g fill="#E2E8F0" opacity="0.86">
    <rect x="120" y="122" width="350" height="38" rx="9"/>
    <rect x="120" y="176" width="220" height="26" rx="8" opacity="0.72"/>
  </g>
</svg>
