<svg width="1400" height="900" viewBox="0 0 1400 900" fill="none" xmlns="http://www.w3.org/2000/svg" role="img" aria-label="Mumbai skyline and bay at dusk">
  <defs>
    <linearGradient id="mum-bg" x1="0" y1="0" x2="1400" y2="900" gradientUnits="userSpaceOnUse">
      <stop stop-color="#0A111E"/>
      <stop offset="0.45" stop-color="#1A2D4E"/>
      <stop offset="1" stop-color="#08111E"/>
    </linearGradient>
    <radialGradient id="mum-orb" cx="0" cy="0" r="1" gradientUnits="userSpaceOnUse" gradientTransform="translate(1140 170) rotate(130) scale(280 340)">
      <stop stop-color="#3B82F6" stop-opacity="0.34"/>
      <stop offset="1" stop-color="#3B82F6" stop-opacity="0"/>
    </radialGradient>
  </defs>

  <rect width="1400" height="900" fill="url(#mum-bg)"/>
  <rect width="1400" height="900" fill="url(#mum-orb)"/>

  <g fill="#0D1A2E">
    <rect x="0" y="540" width="1400" height="360"/>
    <rect x="110" y="400" width="150" height="250"/>
    <rect x="300" y="330" width="180" height="320"/>
    <rect x="520" y="450" width="130" height="200"/>
    <rect x="690" y="320" width="170" height="330"/>
    <rect x="900" y="370" width="150" height="280"/>
    <rect x="1080" y="300" width="180" height="350"/>
  </g>

  <g opacity="0.55" fill="#BFDBFE">
    <rect x="132" y="425" width="10" height="10" rx="2"/>
    <rect x="162" y="425" width="10" height="10" rx="2"/>
    <rect x="332" y="360" width="10" height="10" rx="2"/>
    <rect x="362" y="360" width="10" height="10" rx="2"/>
    <rect x="722" y="350" width="10" height="10" rx="2"/>
    <rect x="752" y="350" width="10" height="10" rx="2"/>
    <rect x="1110" y="336" width="10" height="10" rx="2"/>
    <rect x="1140" y="336" width="10" height="10" rx="2"/>
  </g>

  <path d="M0 735C180 700 322 688 490 698C680 710 810 755 1012 742C1164 733 1263 691 1400 670V900H0V735Z" fill="#08111E" fill-opacity="0.92"/>
  <path d="M0 776C195 753 343 746 515 759C714 774 852 813 1046 804C1195 797 1288 760 1400 744" stroke="#60A5FA" stroke-opacity="0.3" stroke-width="2"/>

  <g fill="#E2E8F0" opacity="0.85">
    <rect x="86" y="86" width="300" height="44" rx="12"/>
    <rect x="86" y="146" width="210" height="30" rx="9" opacity="0.74"/>
  </g>
</svg>
